<svg xmlns="http://www.w3.org/2000/svg" version="1.1" xmlns:xlink="http://www.w3.org/1999/xlink" xmlns:svgjs="http://svgjs.dev/svgjs" width="100%" height="100%" viewBox="0 0 1000 600"><rect width="1000" height="600" x="0" y="0" fill="#5f9ea0"/><g><circle r="166.66666666666666" cx="360.8699289957682" cy="383.0921799811671" fill="#ffffff" transform="matrix(0.6436553590122908,0,0,0.6436553590122908,0,53.42064844952171)"/><path d="M371.7032623627433 458.09218227002583L348.54850115900047 458.09218227002583L348.54850115900047 330.3838528031101L297.1199312874483 330.3838528031101L297.1199312874483 308.092186811332L424.6199274273381 308.092186811332L424.6199274273381 330.3838528031101L371.7032623627433 330.3838528031101L371.7032623627433 458.09218227002583Z " fill="#5f9ea0" transform="matrix(0.6436553590122908,0,0,0.6436553590122908,0,53.42064844952171)"/><path d="M676.7941640401081 456.19811444802735L656.3276612230056 456.19811444802735L656.3276612230056 343.31667024727363L610.8699274595699 343.31667024727363L610.8699274595699 323.6130576380067L723.5672257480876 323.6130576380067L723.5672257480876 343.31667024727363L676.7941640401081 343.31667024727363L676.7941640401081 456.19811444802735ZM790.254352536461 458.0921866881705L790.254352536461 458.0921866881705Q774.3388844074804 458.0921866881705 762.1326410821134 451.3577076121059Q749.9000911978555 444.64953509493233 743.0866924451184 432.8905032707102Q736.2732936923812 421.15777800537904 736.2732936923812 406.37349190870606L736.2732936923812 406.37349190870606Q736.2732936923812 391.2209139875609 743.4549842695906 379.5934149577932Q750.662981405691 367.93960936913464 763.1585968788576 361.3103565286336Q775.6542123520243 354.68110368813257 791.5696804810049 354.68110368813257L791.5696804810049 354.68110368813257Q801.4346400650838 354.68110368813257 809.8527389101645 357.12761366498415Q818.2708377552451 359.6004302007266 824.4265725357104 363.75686650548516Q830.5823073161756 367.93960936913464 834.1863058842258 372.85893588172866Q837.7903044522759 377.77826239432267 838.1585962767482 382.9080413780437L838.1585962767482 382.9080413780437L832.870977939682 382.51344299468053L832.870977939682 356.75932184051186L852.5745905489489 356.75932184051186L852.5745905489489 456.19811444802735L832.870977939682 456.19811444802735L832.870977939682 430.0493949104955L837.0274142444405 430.6281392060948Q836.6591224199683 435.17917389421655 832.6868320274458 439.99327417124704Q828.6882350760325 444.8336810071684 822.2694347066584 448.9111976352544Q815.8243277783936 452.98871426334034 807.590374845549 455.54045047575545Q799.3301153538137 458.0921866881705 790.254352536461 458.0921866881705ZM794.9895331368189 440.09850040681056L794.9895331368189 440.09850040681056Q806.3539665776777 440.09850040681056 815.0614375705582 435.6526919542523Q823.7689085634385 431.2068835016941 828.6882350760325 423.52536830555795Q833.6338681475174 415.84385310942184 833.6338681475174 406.37349190870606L833.6338681475174 406.37349190870606Q833.6338681475174 396.7189847957542 828.6882350760325 389.1426958351816Q823.7689085634385 381.56640687460896 815.0614375705582 377.2258246576143Q806.3539665776777 372.85893588172866 794.9895331368189 372.85893588172866L794.9895331368189 372.85893588172866Q783.62509969596 372.85893588172866 774.9176287030797 377.2258246576143Q766.1838511513084 381.56640687460896 761.1856049620418 389.1426958351816Q756.1610522138843 396.7189847957542 756.1610522138843 406.37349190870606L756.1610522138843 406.37349190870606Q756.1610522138843 415.84385310942184 761.1856049620418 423.52536830555795Q766.1838511513084 431.2068835016941 774.9176287030797 435.6526919542523Q783.62509969596 440.09850040681056 794.9895331368189 440.09850040681056ZM818.6654361386084 323.6130576380067L785.7033178483393 341.4225980071305L779.2582109200744 331.7680908941786L806.3539665776777 308.09218789238923L818.6654361386084 323.6130576380067ZM946.120713964908 456.19811444802735L926.627553826768 456.19811444802735L926.627553826768 327.7694939427653L946.120713964908 327.7694939427653L946.120713964908 456.19811444802735ZM979.082832255177 375.7000442419434L898.7689079613291 375.7000442419434L898.7689079613291 356.75932184051186L979.082832255177 356.75932184051186L979.082832255177 375.7000442419434ZM1050.8734314683807 456.19811444802735L1031.3539647713496 456.19811444802735L1031.3539647713496 356.75932184051186L1050.8734314683807 356.75932184051186L1050.8734314683807 456.19811444802735ZM1040.8243259720655 333.66216313432176L1040.8243259720655 333.66216313432176Q1034.5896715149277 333.66216313432176 1031.1698188591135 330.42645639074385Q1027.7762727621905 327.21705620605684 1027.7762727621905 321.35069357339125L1027.7762727621905 321.35069357339125Q1027.7762727621905 315.8526227651979 1031.2750450946771 312.4327701093839Q1034.7738174271637 309.03922401246075 1040.8243259720655 309.03922401246075L1040.8243259720655 309.03922401246075Q1047.0852869880944 309.03922401246075 1050.5051396439083 312.2486241971478Q1053.8986857408313 315.4580243818348 1053.8986857408313 321.35069357339125L1053.8986857408313 321.35069357339125Q1053.8986857408313 326.8224578226937 1050.399913408345 330.2423104785077Q1046.901141075858 333.66216313432176 1040.8243259720655 333.66216313432176ZM1158.0726589487049 458.0921866881705L1158.0726589487049 458.0921866881705Q1141.973044907488 458.0921866881705 1129.1880572865216 451.2787879354333Q1116.4030696655554 444.46538918269613 1108.9320069405464 432.70635735847407Q1101.4346376566464 420.9736320931429 1101.4346376566464 406.37349190870606L1101.4346376566464 406.37349190870606Q1101.4346376566464 391.615512370924 1108.9320069405464 379.9617067822655Q1116.4030696655554 368.30790119360694 1129.1880572865216 361.4945024408697Q1141.973044907488 354.68110368813257 1158.0726589487049 354.68110368813257L1158.0726589487049 354.68110368813257Q1173.9881270776855 354.68110368813257 1187.536004906487 359.88980234852625Q1201.0838827352889 365.09850100891987 1208.6601716958614 374.1742638262725L1208.6601716958614 374.1742638262725L1197.6640300794747 389.1426958351816Q1193.2971413035893 384.40751523482373 1186.7731146986516 380.6193707545374Q1180.2490880937144 376.8312262742511 1173.041090957614 374.56886220963565Q1165.8330938215136 372.2801915861293 1158.8355491565403 372.2801915861293L1158.8355491565403 372.2801915861293Q1147.8394075401536 372.2801915861293 1139.3160824595093 376.75230659757847Q1130.7927573788652 381.19811505013666 1125.9786571018346 388.85332368738193Q1121.1382502659133 396.53483888351803 1121.1382502659133 406.37349190870606L1121.1382502659133 406.37349190870606Q1121.1382502659133 416.23845149278503 1126.2680292496343 423.89366013003024Q1131.3715016744645 431.5751753261664 1140.0000529906724 436.0209837787246Q1148.602297747989 440.4667922312828 1159.0196950687764 440.4667922312828L1159.0196950687764 440.4667922312828Q1167.3588742371844 440.4667922312828 1174.3564189021577 438.493800314467Q1181.380270126022 436.4945018387604 1187.2466327586876 433.1798754185099Q1193.1129953913533 429.86524899825935 1197.848175991711 426.07710451797305L1197.848175991711 426.07710451797305L1208.6601716958614 440.67724470240984Q1199.558102319618 447.8589352796193 1186.7731146986516 452.98871426334034Q1173.9881270776855 458.0921866881705 1158.0726589487049 458.0921866881705ZM1297.1028226869903 458.0921866881705L1297.1028226869903 458.0921866881705Q1281.1873545580097 458.0921866881705 1268.9811112326427 451.3577076121059Q1256.748561348385 444.64953509493233 1249.9351625956476 432.8905032707102Q1243.1217638429107 421.15777800537904 1243.1217638429107 406.37349190870606L1243.1217638429107 406.37349190870606Q1243.1217638429107 391.2209139875609 1250.3297609790109 379.5934149577932Q1257.5114515562202 367.93960936913464 1270.0070670293871 361.3103565286336Q1282.5289890614445 354.68110368813257 1298.4181506315342 354.68110368813257L1298.4181506315342 354.68110368813257Q1308.283110215613 354.68110368813257 1316.7012090606938 357.12761366498415Q1325.1456144646654 359.6004302007266 1331.3013492451305 363.75686650548516Q1337.4570840255958 367.93960936913464 1341.0347760347552 372.85893588172866Q1344.6387746028054 377.77826239432267 1345.0333729861684 382.9080413780437L1345.0333729861684 382.9080413780437L1339.7194480902112 382.51344299468053L1339.7194480902112 356.75932184051186L1359.4230606994781 356.75932184051186L1359.4230606994781 456.19811444802735L1339.7194480902112 456.19811444802735L1339.7194480902112 430.0493949104955L1343.87588439497 430.6281392060948Q1343.5075925704978 435.17917389421655 1339.5353021779752 439.99327417124704Q1335.5630117854525 444.8336810071684 1329.1179048571876 448.9111976352544Q1322.672797928923 452.98871426334034 1314.4388449960784 455.54045047575545Q1306.2048920632337 458.0921866881705 1297.1028226869903 458.0921866881705ZM1301.8380032873483 440.09850040681056L1301.8380032873483 440.09850040681056Q1313.202436728207 440.09850040681056 1321.9099077210874 435.6526919542523Q1330.6173787139678 431.2068835016941 1335.5630117854525 423.52536830555795Q1340.4823382980467 415.84385310942184 1340.4823382980467 406.37349190870606L1340.4823382980467 406.37349190870606Q1340.4823382980467 396.7189847957542 1335.5630117854525 389.1426958351816Q1330.6173787139678 381.56640687460896 1321.9099077210874 377.2258246576143Q1313.202436728207 372.85893588172866 1301.8380032873483 372.85893588172866L1301.8380032873483 372.85893588172866Q1290.4735698464892 372.85893588172866 1281.766098853609 377.2258246576143Q1273.0586278607286 381.56640687460896 1268.0340751125711 389.1426958351816Q1263.0095223644134 396.7189847957542 1263.0095223644134 406.37349190870606L1263.0095223644134 406.37349190870606Q1263.0095223644134 415.84385310942184 1268.0340751125711 423.52536830555795Q1273.0586278607286 431.2068835016941 1281.766098853609 435.6526919542523Q1290.4735698464892 440.09850040681056 1301.8380032873483 440.09850040681056Z " fill="#ffffff" transform="matrix(0.6436553590122908,0,0,0.6436553590122908,0,53.42064844952171)"/></g></svg>